<svg xmlns="http://www.w3.org/2000/svg" width="24" height="24" viewBox="0 0 24 24" fill="none">
  <circle cx="12" cy="12" r="11" fill="#6366F1" stroke="#4338CA" stroke-width="2" />
  <path d="M15.54 8.13C14.79 7.47 13.74 7.14 12.6 7.14c-1.77 0-3.24.96-4.08 2.46H6.9v1.32h1.35c-.03.18-.03.39-.03.6 0 .24.03.48.06.69H6.9v1.32h1.68c.87 1.38 2.31 2.22 4.02 2.22 1.11 0 2.19-.36 2.88-.99l-.72-1.23c-.54.45-1.26.69-2.07.69-.99 0-1.86-.48-2.43-1.29h3.3V12h-3.66c-.03-.21-.03-.39-.03-.6 0-.21 0-.42.03-.6h3.66v-1.23h-3.24c.54-.78 1.44-1.26 2.46-1.26.78 0 1.47.24 1.98.69l.75-1.62z" fill="#FFFFFF"/>
</svg>
